<svg xmlns="http://www.w3.org/2000/svg" xmlns:xlink="http://www.w3.org/1999/xlink" contentStyleType="text/css" height="406px" preserveAspectRatio="none" style="width:222px;height:406px;background:#FFFFFF;" version="1.1" viewBox="0 0 222 406" width="222px" zoomAndPan="magnify"><defs/><g><rect fill="none" height="174.6641" style="stroke:#000000;stroke-width:1.5;" width="206.5059" x="10" y="137.5625"/><rect fill="none" height="59.2656" style="stroke:#000000;stroke-width:1.5;" width="163.5322" x="20" y="203.8281"/><line style="stroke:#181818;stroke-width:0.5;stroke-dasharray:5.0,5.0;" x1="57" x2="57" y1="36.2969" y2="371.3594"/><rect fill="#E2E2F0" height="30.2969" rx="2.5" ry="2.5" style="stroke:#181818;stroke-width:0.5;" width="55.6787" x="30" y="5"/><text fill="#000000" font-family="sans-serif" font-size="14" lengthAdjust="spacing" textLength="41.6787" x="37" y="24.9951">Game</text><rect fill="#E2E2F0" height="30.2969" rx="2.5" ry="2.5" style="stroke:#181818;stroke-width:0.5;" width="55.6787" x="30" y="370.3594"/><text fill="#000000" font-family="sans-serif" font-size="14" lengthAdjust="spacing" textLength="41.6787" x="37" y="390.3545">Game</text><line style="stroke:#181818;stroke-width:1;" x1="57.8394" x2="99.8394" y1="67.4297" y2="67.4297"/><line style="stroke:#181818;stroke-width:1;" x1="99.8394" x2="99.8394" y1="67.4297" y2="80.4297"/><line style="stroke:#181818;stroke-width:1;" x1="58.8394" x2="99.8394" y1="80.4297" y2="80.4297"/><polygon fill="#181818" points="68.8394,76.4297,58.8394,80.4297,68.8394,84.4297,64.8394,80.4297" style="stroke:#181818;stroke-width:1;"/><text fill="#000000" font-family="sans-serif" font-size="13" lengthAdjust="spacing" textLength="64.3271" x="64.8394" y="62.3638">initialize()</text><line style="stroke:#181818;stroke-width:1;" x1="57.8394" x2="99.8394" y1="109.5625" y2="109.5625"/><line style="stroke:#181818;stroke-width:1;" x1="99.8394" x2="99.8394" y1="109.5625" y2="122.5625"/><line style="stroke:#181818;stroke-width:1;" x1="58.8394" x2="99.8394" y1="122.5625" y2="122.5625"/><polygon fill="#181818" points="68.8394,118.5625,58.8394,122.5625,68.8394,126.5625,64.8394,122.5625" style="stroke:#181818;stroke-width:1;"/><text fill="#000000" font-family="sans-serif" font-size="13" lengthAdjust="spacing" textLength="37.9146" x="64.8394" y="104.4966">loop()</text><path d="M10,137.5625 L86.624,137.5625 L86.624,144.6953 L76.624,154.6953 L10,154.6953 L10,137.5625 " fill="#EEEEEE" style="stroke:#000000;stroke-width:1.5;"/><rect fill="none" height="174.6641" style="stroke:#000000;stroke-width:1.5;" width="206.5059" x="10" y="137.5625"/><text fill="#000000" font-family="sans-serif" font-size="13" font-weight="bold" lengthAdjust="spacing" textLength="31.624" x="25" y="150.6294">loop</text><text fill="#000000" font-family="sans-serif" font-size="11" font-weight="bold" lengthAdjust="spacing" textLength="109.8818" x="101.624" y="149.7729">[until exit is true]</text><line style="stroke:#181818;stroke-width:1;" x1="57.8394" x2="99.8394" y1="175.8281" y2="175.8281"/><line style="stroke:#181818;stroke-width:1;" x1="99.8394" x2="99.8394" y1="175.8281" y2="188.8281"/><line style="stroke:#181818;stroke-width:1;" x1="58.8394" x2="99.8394" y1="188.8281" y2="188.8281"/><polygon fill="#181818" points="68.8394,184.8281,58.8394,188.8281,68.8394,192.8281,64.8394,188.8281" style="stroke:#181818;stroke-width:1;"/><text fill="#000000" font-family="sans-serif" font-size="13" lengthAdjust="spacing" textLength="43.583" x="64.8394" y="170.7622">input()</text><path d="M20,203.8281 L84.4429,203.8281 L84.4429,210.9609 L74.4429,220.9609 L20,220.9609 L20,203.8281 " fill="#EEEEEE" style="stroke:#000000;stroke-width:1.5;"/><rect fill="none" height="59.2656" style="stroke:#000000;stroke-width:1.5;" width="163.5322" x="20" y="203.8281"/><text fill="#000000" font-family="sans-serif" font-size="13" font-weight="bold" lengthAdjust="spacing" textLength="19.4429" x="35" y="216.895">alt</text><text fill="#000000" font-family="sans-serif" font-size="11" font-weight="bold" lengthAdjust="spacing" textLength="79.0894" x="99.4429" y="216.0386">[not paause]</text><line style="stroke:#181818;stroke-width:1;" x1="57.8394" x2="99.8394" y1="242.0938" y2="242.0938"/><line style="stroke:#181818;stroke-width:1;" x1="99.8394" x2="99.8394" y1="242.0938" y2="255.0938"/><line style="stroke:#181818;stroke-width:1;" x1="58.8394" x2="99.8394" y1="255.0938" y2="255.0938"/><polygon fill="#181818" points="68.8394,251.0938,58.8394,255.0938,68.8394,259.0938,64.8394,255.0938" style="stroke:#181818;stroke-width:1;"/><text fill="#000000" font-family="sans-serif" font-size="13" lengthAdjust="spacing" textLength="55.9482" x="64.8394" y="237.0278">update()</text><line style="stroke:#181818;stroke-width:1;" x1="57.8394" x2="99.8394" y1="291.2266" y2="291.2266"/><line style="stroke:#181818;stroke-width:1;" x1="99.8394" x2="99.8394" y1="291.2266" y2="304.2266"/><line style="stroke:#181818;stroke-width:1;" x1="58.8394" x2="99.8394" y1="304.2266" y2="304.2266"/><polygon fill="#181818" points="68.8394,300.2266,58.8394,304.2266,68.8394,308.2266,64.8394,304.2266" style="stroke:#181818;stroke-width:1;"/><text fill="#000000" font-family="sans-serif" font-size="13" lengthAdjust="spacing" textLength="53.3203" x="64.8394" y="286.1606">render()</text><line style="stroke:#181818;stroke-width:1;" x1="57.8394" x2="99.8394" y1="340.3594" y2="340.3594"/><line style="stroke:#181818;stroke-width:1;" x1="99.8394" x2="99.8394" y1="340.3594" y2="353.3594"/><line style="stroke:#181818;stroke-width:1;" x1="58.8394" x2="99.8394" y1="353.3594" y2="353.3594"/><polygon fill="#181818" points="68.8394,349.3594,58.8394,353.3594,68.8394,357.3594,64.8394,353.3594" style="stroke:#181818;stroke-width:1;"/><text fill="#000000" font-family="sans-serif" font-size="13" lengthAdjust="spacing" textLength="59.7568" x="64.8394" y="335.2935">dispose()</text><!--SRC=[NOun2iCm34NtdEAFwP0BTCZgSmYiGU3OmfQWzFILGo4XYmJlFtsKwE1jJp7VKiM4YdnvVItfugKr3J8Nl9eKy4SCCc3TUG6cXMt7lqNTGWUe66epA96FwJrCrqp6fyerurdK0tAF-0nl_sGPsaOS_W00]--></g></svg>