<svg xmlns="http://www.w3.org/2000/svg" xmlns:xlink="http://www.w3.org/1999/xlink" contentStyleType="text/css" data-diagram-type="CLASS" height="291px" preserveAspectRatio="none" style="width:393px;height:291px;background:#FFFFFF;" version="1.1" viewBox="0 0 393 291" width="393px" zoomAndPan="magnify"><defs/><g><!--class Behavior--><g id="elem_Behavior"><rect codeLine="1" fill="#F1F1F1" height="32" id="Behavior" rx="2.5" ry="2.5" style="stroke:#181818;stroke-width:0.5;" width="105.4961" x="208.59" y="252.59"/><ellipse cx="223.59" cy="268.59" fill="#ADD1B2" rx="11" ry="11" style="stroke:#181818;stroke-width:1;"/><path d="M226.5588,274.2306 Q225.9806,274.5275 225.34,274.6681 Q224.6994,274.8244 223.9963,274.8244 Q221.4963,274.8244 220.1681,273.1838 Q218.8556,271.5275 218.8556,268.4025 Q218.8556,265.2775 220.1681,263.6213 Q221.4963,261.965 223.9963,261.965 Q224.6994,261.965 225.34,262.1213 Q225.9963,262.2775 226.5588,262.5744 L226.5588,265.2931 Q225.9338,264.715 225.34,264.4494 Q224.7463,264.1681 224.1213,264.1681 Q222.7775,264.1681 222.09,265.2463 Q221.4025,266.3088 221.4025,268.4025 Q221.4025,270.4963 222.09,271.5744 Q222.7775,272.6369 224.1213,272.6369 Q224.7463,272.6369 225.34,272.3713 Q225.9338,272.09 226.5588,271.5119 L226.5588,274.2306 Z " fill="#000000"/><text fill="#000000" font-family="sans-serif" font-size="14" lengthAdjust="spacing" textLength="62.166" x="237.59" y="273.4367">Behavior</text><rect fill="#FFFFFF" height="15.9688" style="stroke:#181818;stroke-width:1;stroke-dasharray:2.0,2.0;" width="9.3301" x="307.756" y="249.59"/><text fill="#000000" font-family="sans-serif" font-size="12" font-style="italic" lengthAdjust="spacing" textLength="7.3301" x="308.756" y="261.7287">T</text></g><!--class Node--><g id="elem_Node"><rect codeLine="4" fill="#F1F1F1" height="72.5938" id="Node" rx="2.5" ry="2.5" style="stroke:#181818;stroke-width:0.5;" width="112.2012" x="96.24" y="10"/><ellipse cx="125.7899" cy="26" fill="#ADD1B2" rx="11" ry="11" style="stroke:#181818;stroke-width:1;"/><path d="M128.7586,31.6406 Q128.1805,31.9375 127.5399,32.0781 Q126.8992,32.2344 126.1961,32.2344 Q123.6961,32.2344 122.368,30.5938 Q121.0555,28.9375 121.0555,25.8125 Q121.0555,22.6875 122.368,21.0313 Q123.6961,19.375 126.1961,19.375 Q126.8992,19.375 127.5399,19.5313 Q128.1961,19.6875 128.7586,19.9844 L128.7586,22.7031 Q128.1336,22.125 127.5399,21.8594 Q126.9461,21.5781 126.3211,21.5781 Q124.9774,21.5781 124.2899,22.6563 Q123.6024,23.7188 123.6024,25.8125 Q123.6024,27.9063 124.2899,28.9844 Q124.9774,30.0469 126.3211,30.0469 Q126.9461,30.0469 127.5399,29.7813 Q128.1336,29.5 128.7586,28.9219 L128.7586,31.6406 Z " fill="#000000"/><text fill="#000000" font-family="sans-serif" font-size="14" lengthAdjust="spacing" textLength="36.5381" x="143.0232" y="30.8467">Node</text><rect fill="#FFFFFF" height="15.9688" style="stroke:#181818;stroke-width:1;stroke-dasharray:2.0,2.0;" width="9.3301" x="202.1111" y="7"/><text fill="#000000" font-family="sans-serif" font-size="12" font-style="italic" lengthAdjust="spacing" textLength="7.3301" x="203.1111" y="19.1387">T</text><line style="stroke:#181818;stroke-width:0.5;" x1="97.24" x2="207.4412" y1="42" y2="42"/><ellipse cx="107.24" cy="55.6484" fill="none" rx="3" ry="3" style="stroke:#038048;stroke-width:1;"/><text fill="#000000" font-family="sans-serif" font-size="14" lengthAdjust="spacing" textLength="47.708" x="116.24" y="58.9951">id:long</text><ellipse cx="107.24" cy="71.9453" fill="none" rx="3" ry="3" style="stroke:#038048;stroke-width:1;"/><text fill="#000000" font-family="sans-serif" font-size="14" lengthAdjust="spacing" textLength="86.2012" x="116.24" y="75.292">name:String</text></g><!--class Scene--><g id="elem_Scene"><rect codeLine="9" fill="#F1F1F1" height="32" id="Scene" rx="2.5" ry="2.5" style="stroke:#181818;stroke-width:0.5;" width="74.6836" x="7" y="143.59"/><ellipse cx="22" cy="159.59" fill="#ADD1B2" rx="11" ry="11" style="stroke:#181818;stroke-width:1;"/><path d="M24.9688,165.2306 Q24.3906,165.5275 23.75,165.6681 Q23.1094,165.8244 22.4063,165.8244 Q19.9063,165.8244 18.5781,164.1837 Q17.2656,162.5275 17.2656,159.4025 Q17.2656,156.2775 18.5781,154.6212 Q19.9063,152.965 22.4063,152.965 Q23.1094,152.965 23.75,153.1212 Q24.4063,153.2775 24.9688,153.5744 L24.9688,156.2931 Q24.3438,155.715 23.75,155.4494 Q23.1563,155.1681 22.5313,155.1681 Q21.1875,155.1681 20.5,156.2462 Q19.8125,157.3087 19.8125,159.4025 Q19.8125,161.4962 20.5,162.5744 Q21.1875,163.6369 22.5313,163.6369 Q23.1563,163.6369 23.75,163.3712 Q24.3438,163.09 24.9688,162.5119 L24.9688,165.2306 Z " fill="#000000"/><text fill="#000000" font-family="sans-serif" font-size="14" lengthAdjust="spacing" textLength="42.6836" x="36" y="164.4367">Scene</text></g><!--class Entity--><g id="elem_Entity"><rect codeLine="12" fill="#F1F1F1" height="32" id="Entity" rx="2.5" ry="2.5" style="stroke:#181818;stroke-width:0.5;" width="72.8721" x="224.91" y="143.59"/><ellipse cx="239.91" cy="159.59" fill="#ADD1B2" rx="11" ry="11" style="stroke:#181818;stroke-width:1;"/><path d="M242.8788,165.2306 Q242.3006,165.5275 241.66,165.6681 Q241.0194,165.8244 240.3163,165.8244 Q237.8163,165.8244 236.4881,164.1837 Q235.1756,162.5275 235.1756,159.4025 Q235.1756,156.2775 236.4881,154.6212 Q237.8163,152.965 240.3163,152.965 Q241.0194,152.965 241.66,153.1212 Q242.3163,153.2775 242.8788,153.5744 L242.8788,156.2931 Q242.2538,155.715 241.66,155.4494 Q241.0663,155.1681 240.4413,155.1681 Q239.0975,155.1681 238.41,156.2462 Q237.7225,157.3087 237.7225,159.4025 Q237.7225,161.4962 238.41,162.5744 Q239.0975,163.6369 240.4413,163.6369 Q241.0663,163.6369 241.66,163.3712 Q242.2538,163.09 242.8788,162.5119 L242.8788,165.2306 Z " fill="#000000"/><text fill="#000000" font-family="sans-serif" font-size="14" lengthAdjust="spacing" textLength="40.8721" x="253.91" y="164.4367">Entity</text></g><!--reverse link Node to Scene--><g id="link_Node_Scene"><path d="M105.3371,95.73 C85.5871,116.09 74.33,127.68 59.27,143.2 " fill="none" id="Node-backto-Scene" style="stroke:#181818;stroke-width:1;"/><polygon fill="none" points="117.87,82.81,101.0304,91.5524,109.6438,99.9076,117.87,82.81" style="stroke:#181818;stroke-width:1;"/></g><!--reverse link Node to Entity--><g id="link_Node_Entity"><path d="M199.7246,95.6699 C219.6646,116.0299 231.07,127.68 246.27,143.2 " fill="none" id="Node-backto-Entity" style="stroke:#181818;stroke-width:1;"/><polygon fill="none" points="187.13,82.81,195.438,99.8681,204.0112,91.4717,187.13,82.81" style="stroke:#181818;stroke-width:1;"/></g><!--link Entity to Behavior--><g id="link_Entity_Behavior"><path codeLine="24" d="M261.34,175.92 C261.34,196.26 261.34,225.96 261.34,246.29 " fill="none" id="Entity-to-Behavior" style="stroke:#181818;stroke-width:1;"/><polygon fill="#181818" points="261.34,252.29,265.34,243.29,261.34,247.29,257.34,243.29,261.34,252.29" style="stroke:#181818;stroke-width:1;"/><text fill="#000000" font-family="sans-serif" font-size="13" lengthAdjust="spacing" textLength="123.0938" x="262.34" y="218.6569">getBehaviors():List</text></g><!--link Scene to Entity--><g id="link_Scene_Entity"><path codeLine="25" d="M82.14,159.59 C122.21,159.59 179.07,159.59 218.7,159.59 " fill="none" id="Scene-to-Entity" style="stroke:#181818;stroke-width:1;"/><polygon fill="#181818" points="224.7,159.59,215.7,155.59,219.7,159.59,215.7,163.59,224.7,159.59" style="stroke:#181818;stroke-width:1;"/><text fill="#000000" font-family="sans-serif" font-size="13" lengthAdjust="spacing" textLength="107.2373" x="99.79" y="152.6569">getEntities():List</text></g><!--SRC=[NOz13i8W44Ntd8Abnd01OhemSMVSr0iWJCeaBIHbR3J6krkW477tv-KnVz2Z2e6VmAe5_NoyTM_sOKmdUlK64k47ZaQEtWqnEZM1x6d6TQnkhy41XoU1CzlBX7xtdHqXlLefizZ1esZHGF4c8EjDQ9YYjVV-8DXmhctCZFx5yiFMhRJgcSVJgibojn1TqUK0L7BOxUK50x7SAxhjrEYaX52KBm00]--></g></svg>